<?xml version="1.0" encoding="UTF-8" standalone="no"?>
<svg
   xmlns:dc="http://purl.org/dc/elements/1.1/"
   xmlns:cc="http://creativecommons.org/ns#"
   xmlns:rdf="http://www.w3.org/1999/02/22-rdf-syntax-ns#"
   xmlns:svg="http://www.w3.org/2000/svg"
   xmlns="http://www.w3.org/2000/svg"
   xmlns:sodipodi="http://sodipodi.sourceforge.net/DTD/sodipodi-0.dtd"
   xmlns:inkscape="http://www.inkscape.org/namespaces/inkscape"
   width="1252"
   height="1252"
   viewBox="0 0 1252.0001 1252"
   version="1.1"
   id="svg9"
   sodipodi:docname="dumb-logo-presentation.svg"
   inkscape:version="0.92.3 (2405546, 2018-03-11)">
  <metadata
     id="metadata15">
    <rdf:RDF>
      <cc:Work
         rdf:about="">
        <dc:format>image/svg+xml</dc:format>
        <dc:type
           rdf:resource="http://purl.org/dc/dcmitype/StillImage" />
        <dc:title></dc:title>
      </cc:Work>
    </rdf:RDF>
  </metadata>
  <defs
     id="defs13" />
  <sodipodi:namedview
     pagecolor="#ffffff"
     bordercolor="#666666"
     borderopacity="1"
     objecttolerance="10"
     gridtolerance="10"
     guidetolerance="10"
     inkscape:pageopacity="0"
     inkscape:pageshadow="2"
     inkscape:window-width="1714"
     inkscape:window-height="1080"
     id="namedview11"
     showgrid="false"
     inkscape:zoom="0.23006748"
     inkscape:cx="-115.48945"
     inkscape:cy="339.03098"
     inkscape:window-x="-8"
     inkscape:window-y="-8"
     inkscape:window-maximized="1"
     inkscape:current-layer="Group_5" />
  <g
     id="Group_5"
     data-name="Group 5"
     transform="translate(-668.806,226.21399)">
    <g
       id="g824"
       transform="translate(0.4025,-113.10699)">
      <path
         transform="translate(2658.806)"
         style="fill:#1c1c1c;fill-opacity:1"
         inkscape:connector-curvature="0"
         d="m -1251.7,1025.786 c -20.062,0 -46.989,-1.887 -80.032,-5.609 -30.041,-3.384 -65.809,-8.358 -106.311,-14.787 -68.215,-10.827 -150.949,-25.923 -245.9,-44.87 -84.475,-16.856 -163.194,-33.7 -214.356,-44.87 -54.961,-12 -90.224,-20.058 -91.7,-20.4 0.118,-0.14 14.3,-16.98 35.22,-43.571 12.271,-15.6 24.417,-31.44 36.1,-47.086 14.6,-19.558 28.528,-38.868 41.384,-57.4 32.718,-47.153 58.787,-89.56 77.484,-126.046 23.37,-45.6 35.22,-82.03 35.22,-108.262 a 521.1,521.1 0 0 1 2.648,-52.44 514.2,514.2 0 0 1 7.772,-50.925 c 3.381,-16.522 7.633,-33.06 12.638,-49.153 4.95,-15.913 10.752,-31.767 17.247,-47.122 6.435,-15.214 13.7,-30.3 21.6,-44.834 7.84,-14.432 16.484,-28.66 25.691,-42.288 9.163,-13.563 19.1,-26.848 29.526,-39.484 10.4,-12.608 21.542,-24.862 33.1,-36.423 11.558,-11.561 23.817,-22.7 36.423,-33.1 12.636,-10.429 25.921,-20.363 39.484,-29.526 13.628,-9.207 27.856,-17.85 42.288,-25.691 14.536,-7.9 29.62,-15.163 44.834,-21.6 15.356,-6.5 31.21,-12.3 47.122,-17.247 16.092,-5.005 32.629,-9.257 49.153,-12.638 A 514.061,514.061 0 0 1 -1304.139,2.642 521.045,521.045 0 0 1 -1251.7,0 h 74.046 c -240.456,0.742 -436.082,196.987 -436.082,437.465 0,241.218 196.245,437.464 437.464,437.464 241.219,0 437.465,-196.245 437.465,-437.464 v 75.428 a 521.007,521.007 0 0 1 -2.648,52.44 514,514 0 0 1 -7.772,50.925 c -3.381,16.524 -7.633,33.061 -12.638,49.153 -4.95,15.913 -10.753,31.767 -17.247,47.123 -6.435,15.215 -13.7,30.3 -21.6,44.834 -7.84,14.432 -16.484,28.66 -25.691,42.288 -9.163,13.563 -19.1,26.848 -29.526,39.484 -10.4,12.606 -21.541,24.86 -33.1,36.423 -11.559,11.563 -23.818,22.7 -36.423,33.1 -12.637,10.429 -25.922,20.363 -39.484,29.526 -13.628,9.207 -27.856,17.85 -42.288,25.691 -14.536,7.9 -29.621,15.163 -44.834,21.6 -15.356,6.5 -31.21,12.3 -47.122,17.247 -16.093,5.005 -32.63,9.258 -49.153,12.638 a 514.184,514.184 0 0 1 -50.925,7.772 521.091,521.091 0 0 1 -52.442,2.649 z"
         data-name="Subtraction 1"
         id="Subtraction_1" />
      <g
         data-name="Group 4"
         id="Group_4">
        <path
           inkscape:label="Path_17"
           style="fill:#ffffff"
           inkscape:connector-curvature="0"
           transform="translate(1045.071)"
           d="m 437.464,0 h 437.465 v 437.464 c 0,241.6 -195.86,437.464 -437.464,437.464 C 195.861,874.928 0,679.069 0,437.464 0,195.859 195.859,0 437.464,0 Z"
           data-name="Path 17"
           id="Path_17" />
        <path
           style="fill:#ffaa00;fill-opacity:0.34901961"
           inkscape:connector-curvature="0"
           transform="translate(1045.071)"
           d="m 437.464,0 h 437.465 v 437.464 c 0,241.6 -195.86,437.464 -437.464,437.464 C 195.861,874.928 0,679.069 0,437.464 0,195.859 195.859,0 437.464,0 Z"
           data-name="Path 7"
           id="Path_7" />
        <path
           style="fill:#ffaa00;fill-opacity:0.34901961"
           inkscape:connector-curvature="0"
           transform="translate(1245.354)"
           d="m 337.323,0 h 337.323 v 337.323 c 0,186.3 -151.025,337.323 -337.323,337.323 C 151.025,674.646 0,523.621 0,337.323 0,151.025 151.025,0 337.323,0 Z"
           data-name="Path 6"
           id="Path_6" />
        <path
           style="fill:#ffaa00;fill-opacity:0.34901961"
           inkscape:connector-curvature="0"
           transform="translate(1457)"
           d="M 231.5,0 H 463 V 231.5 C 463,359.354 359.354,463 231.5,463 103.646,463 0,359.354 0,231.5 0,103.646 103.646,0 231.5,0 Z"
           data-name="Path 5"
           id="Path_5" />
      </g>
    </g>
  </g>
</svg>
