<svg xmlns="http://www.w3.org/2000/svg" width="1251.195" height="1025.786" viewBox="0 0 1251.195 1025.786">
  <defs>
    <style>
      .cls-1 {
        fill: rgba(245,245,245,1);
      }

      .cls-2 {
        fill: #fff;
      }

      .cls-3 {
        fill: rgba(255,170,0,0.35);
      }
    </style>
  </defs>
  <g id="Group_5" data-name="Group 5" transform="translate(-668.806 0)">
    <path id="Subtraction_1" data-name="Subtraction 1" class="cls-1" d="M-1251.7,1025.786c-20.062,0-46.989-1.887-80.032-5.609-30.041-3.384-65.809-8.358-106.311-14.787-68.215-10.827-150.949-25.923-245.9-44.87-84.475-16.856-163.194-33.7-214.356-44.87-54.961-12-90.224-20.058-91.7-20.4.118-.14,14.3-16.98,35.22-43.571,12.271-15.6,24.417-31.44,36.1-47.086,14.6-19.558,28.528-38.868,41.384-57.4,32.718-47.153,58.787-89.56,77.484-126.046,23.37-45.6,35.22-82.03,35.22-108.262a521.1,521.1,0,0,1,2.648-52.44,514.2,514.2,0,0,1,7.772-50.925c3.381-16.522,7.633-33.06,12.638-49.153,4.95-15.913,10.752-31.767,17.247-47.122,6.435-15.214,13.7-30.3,21.6-44.834,7.84-14.432,16.484-28.66,25.691-42.288,9.163-13.563,19.1-26.848,29.526-39.484,10.4-12.608,21.542-24.862,33.1-36.423s23.817-22.7,36.423-33.1c12.636-10.429,25.921-20.363,39.484-29.526,13.628-9.207,27.856-17.85,42.288-25.691,14.536-7.9,29.62-15.163,44.834-21.6,15.356-6.5,31.21-12.3,47.122-17.247,16.092-5.005,32.629-9.257,49.153-12.638a514.061,514.061,0,0,1,50.926-7.772A521.045,521.045,0,0,1-1251.7,0h74.046c-240.456.742-436.082,196.987-436.082,437.465,0,241.218,196.245,437.464,437.464,437.464s437.465-196.245,437.465-437.464v75.428a521.007,521.007,0,0,1-2.648,52.44,514,514,0,0,1-7.772,50.925c-3.381,16.524-7.633,33.061-12.638,49.153-4.95,15.913-10.753,31.767-17.247,47.123-6.435,15.215-13.7,30.3-21.6,44.834-7.84,14.432-16.484,28.66-25.691,42.288-9.163,13.563-19.1,26.848-29.526,39.484-10.4,12.606-21.541,24.86-33.1,36.423s-23.818,22.7-36.423,33.1c-12.637,10.429-25.922,20.363-39.484,29.526-13.628,9.207-27.856,17.85-42.288,25.691-14.536,7.9-29.621,15.163-44.834,21.6-15.356,6.5-31.21,12.3-47.122,17.247-16.093,5.005-32.63,9.258-49.153,12.638a514.184,514.184,0,0,1-50.925,7.772A521.091,521.091,0,0,1-1251.7,1025.786Z" transform="translate(2658.806)"/>
    <g id="Group_4" data-name="Group 4">
      <path id="Path_17" data-name="Path 17" class="cls-2" d="M437.464,0H874.929V437.464c0,241.6-195.86,437.464-437.464,437.464S0,679.069,0,437.464,195.859,0,437.464,0Z" transform="translate(1045.071)"/>
      <path id="Path_7" data-name="Path 7" class="cls-3" d="M437.464,0H874.929V437.464c0,241.6-195.86,437.464-437.464,437.464S0,679.069,0,437.464,195.859,0,437.464,0Z" transform="translate(1045.071)"/>
      <path id="Path_6" data-name="Path 6" class="cls-3" d="M337.323,0H674.646V337.323c0,186.3-151.025,337.323-337.323,337.323S0,523.621,0,337.323,151.025,0,337.323,0Z" transform="translate(1245.354)"/>
      <path id="Path_5" data-name="Path 5" class="cls-3" d="M231.5,0H463V231.5C463,359.354,359.354,463,231.5,463S0,359.354,0,231.5,103.646,0,231.5,0Z" transform="translate(1457)"/>
    </g>
  </g>
</svg>
