<?xml version="1.0" encoding="UTF-8" standalone="no"?>
<svg
   xmlns:dc="http://purl.org/dc/elements/1.1/"
   xmlns:cc="http://creativecommons.org/ns#"
   xmlns:rdf="http://www.w3.org/1999/02/22-rdf-syntax-ns#"
   xmlns:svg="http://www.w3.org/2000/svg"
   xmlns="http://www.w3.org/2000/svg"
   xmlns:sodipodi="http://sodipodi.sourceforge.net/DTD/sodipodi-0.dtd"
   xmlns:inkscape="http://www.inkscape.org/namespaces/inkscape"
   width="1252"
   height="1252"
   viewBox="0 0 1252.0001 1252"
   version="1.1"
   id="svg10"
   sodipodi:docname="inkscape-logo.svg"
   inkscape:version="0.92.3 (2405546, 2018-03-11)"
   inkscape:export-filename="C:\Users\adith\Documents\Projects\Angular\portfolio\src\assets\app-icon.png"
   inkscape:export-xdpi="39.258785"
   inkscape:export-ydpi="39.258785">
  <metadata
     id="metadata14">
    <rdf:RDF>
      <cc:Work
         rdf:about="">
        <dc:format>image/svg+xml</dc:format>
        <dc:type
           rdf:resource="http://purl.org/dc/dcmitype/StillImage" />
        <dc:title></dc:title>
      </cc:Work>
    </rdf:RDF>
  </metadata>
  <sodipodi:namedview
     pagecolor="#ffffff"
     bordercolor="#666666"
     borderopacity="1"
     objecttolerance="10"
     gridtolerance="10"
     guidetolerance="10"
     inkscape:pageopacity="0"
     inkscape:pageshadow="2"
     inkscape:window-width="1235"
     inkscape:window-height="838"
     id="namedview12"
     showgrid="false"
     inkscape:zoom="0.23006748"
     inkscape:cx="625.59747"
     inkscape:cy="512.89301"
     inkscape:window-x="0"
     inkscape:window-y="0"
     inkscape:window-maximized="0"
     inkscape:current-layer="svg10" />
  <defs
     id="defs4">
    <style
       id="style2">
      .cls-1 {
        fill: rgba(0,0,0,0.81);
      }

      .cls-2 {
        fill: rgba(255,170,0,0.35);
      }
    </style>
  </defs>
  <g
     id="g825"
     transform="translate(0.4035,-113.10702)">
    <path
       inkscape:connector-curvature="0"
       d="m 738.299,1252 c -20.062,0 -46.989,-1.887 -80.032,-5.609 -30.041,-3.384 -65.809,-8.358 -106.311,-14.787 -68.215,-10.827 -150.949,-25.923 -245.9,-44.87 -84.475,-16.856 -163.194,-33.7 -214.356,-44.87 -54.961,-12 -90.224,-20.058 -91.7,-20.4 0.118,-0.14 14.3,-16.98 35.22,-43.571 12.271,-15.6 24.417,-31.44 36.1,-47.086 14.6,-19.558 28.528,-38.86795 41.384,-57.39995 32.718,-47.153 58.787,-89.56 77.484,-126.046 23.37,-45.6 35.22,-82.03 35.22,-108.262 a 521.1,521.1 0 0 1 2.648,-52.44 514.2,514.2 0 0 1 7.772,-50.925 c 3.381,-16.522 7.633,-33.06 12.638,-49.153 4.95,-15.913 10.752,-31.767 17.247,-47.122 6.435,-15.214 13.7,-30.3 21.6,-44.834 7.84,-14.432 16.484,-28.66 25.691,-42.288 9.163,-13.563 19.1,-26.848 29.526,-39.484 10.4,-12.608 21.542,-24.862 33.1,-36.423 11.558,-11.561 23.817,-22.7 36.423,-33.1 12.636,-10.429 25.921,-20.363 39.484,-29.526 13.628,-9.207 27.856,-17.85 42.288,-25.691 14.536,-7.9 29.62,-15.163 44.834,-21.6 15.356,-6.5 31.21,-12.3 47.122,-17.247 16.092,-5.005 32.629,-9.257 49.153,-12.638 a 514.061,514.061 0 0 1 50.926,-7.772 521.045,521.045 0 0 1 52.439,-2.642 h 74.046 c -240.456,0.742 -436.082,196.987 -436.082,437.465 0,241.218 196.245,437.46395 437.464,437.46395 241.219,0 437.465,-196.24495 437.465,-437.46395 v 75.428 a 521.007,521.007 0 0 1 -2.648,52.44 514,514 0 0 1 -7.772,50.925 c -3.381,16.524 -7.633,33.061 -12.638,49.153 -4.95,15.913 -10.753,31.767 -17.247,47.123 -6.435,15.215 -13.7,30.3 -21.6,44.834 -7.84,14.432 -16.484,28.65995 -25.691,42.28795 -9.163,13.563 -19.1,26.848 -29.526,39.484 -10.4,12.606 -21.541,24.86 -33.1,36.423 -11.559,11.563 -23.818,22.7 -36.423,33.1 -12.637,10.429 -25.922,20.363 -39.484,29.526 -13.628,9.207 -27.856,17.85 -42.288,25.691 -14.536,7.9 -29.621,15.163 -44.834,21.6 -15.356,6.5 -31.21,12.3 -47.122,17.2471 -16.093,5.0049 -32.63,9.2579 -49.153,12.6379 a 514.184,514.184 0 0 1 -50.925,7.772 521.091,521.091 0 0 1 -52.442,2.649 z"
       class="cls-1"
       data-name="Subtraction 1"
       id="Subtraction_1" />
    <path
       inkscape:connector-curvature="0"
       style="fill:#ffaa00;fill-opacity:0.35"
       d="m 813.728,226.21405 h 437.465 v 437.464 c 0,241.6 -195.86,437.46395 -437.464,437.46395 -241.604,0 -437.465,-195.85895 -437.465,-437.46395 0,-241.605 195.859,-437.464 437.464,-437.464 z"
       class="cls-2"
       data-name="Path 7"
       id="Path_7" />
    <path
       inkscape:connector-curvature="0"
       style="fill:#ffaa00;fill-opacity:0.35"
       d="m 913.87,226.21405 h 337.323 v 337.323 c 0,186.3 -151.025,337.323 -337.323,337.323 -186.298,0 -337.323,-151.025 -337.323,-337.323 0,-186.298 151.025,-337.323 337.323,-337.323 z"
       class="cls-2"
       data-name="Path 6"
       id="Path_6" />
    <path
       inkscape:connector-curvature="0"
       style="fill:#ffaa00;fill-opacity:0.35"
       d="m 1019.693,226.21405 h 231.5 v 231.5 c 0,127.854 -103.646,231.5 -231.5,231.5 -127.854,0 -231.5,-103.646 -231.5,-231.5 0,-127.854 103.646,-231.5 231.5,-231.5 z"
       class="cls-2"
       data-name="Path 5"
       id="Path_5" />
  </g>
</svg>
