<svg xmlns="http://www.w3.org/2000/svg" width="24" height="23.408" viewBox="0 0 24 23.408">
  <defs>
    <style>
      .cls-1 {
        fill: #787878;
        fill-rule: evenodd;
      }
    </style>
  </defs>
  <path id="Octicons-mark-github" class="cls-1" d="M12,0A12,12,0,0,0,8.2,23.385c.6.1.825-.255.825-.57,0-.285-.015-1.23-.015-2.235-3.015.555-3.8-.735-4.035-1.41a4.363,4.363,0,0,0-1.23-1.695c-.42-.225-1.02-.78-.015-.8A2.4,2.4,0,0,1,5.58,17.91a2.565,2.565,0,0,0,3.495.99,2.524,2.524,0,0,1,.765-1.605C7.17,17,4.38,15.96,4.38,11.37A4.67,4.67,0,0,1,5.61,8.145a4.312,4.312,0,0,1,.12-3.18s1-.315,3.3,1.23a11.314,11.314,0,0,1,6,0c2.295-1.56,3.3-1.23,3.3-1.23a4.312,4.312,0,0,1,.12,3.18,4.643,4.643,0,0,1,1.23,3.225c0,4.6-2.805,5.625-5.475,5.925a2.842,2.842,0,0,1,.81,2.22c0,1.6-.015,2.895-.015,3.3,0,.315.225.69.825.57A12.006,12.006,0,0,0,12,0Z"/>
</svg>
